# xmcd
#
# Track frame offsets: 
#        187
#        12440
#        22470
#        32075
#        41942
#        51232
#        64780
#        75142
#        87032
#        98997
#        109405
#        121200
#        132530
#        145422
#        159032
#        171120
#        184862
#        198782
#        208077
#        220620
#
# Disc length: 3125 seconds
#
# Revision: 5
# Processed by: cddbd v1.5.1PL0 Copyright (c) Steve Scherf et al.
# Submitted via: ExactAudioCopy v0.95a5
#
DISCID=1a0c3314
DTITLE=Loretta Lynn - 20 Greatest Hits
DYEAR=1987
DGENRE=Country
TTITLE0=Blue Kentucky Girl
TTITLE1=You Ain't Woman Enough To Take My Man
TTITLE2=Don't Come Home A-Drinkin' (With Lovin' On Your Mind)
TTITLE3=Fist City
TTITLE4=Your Squaw Is On The Warpath
TTITLE5=Coal Miner's Daughter
TTITLE6=You're Looking At Country
TTITLE7=One's On The Way
TTITLE8=Rated X
TTITLE9=They Don't Make 'Em Like My Daddy
TTITLE10=The Pill
TTITLE11=Love Is The Foundation
TTITLE12=Hey Loretta
TTITLE13=When The Tingle Becomes A Chill
TTITLE14=Out Of My Head And Back In My Bed
TTITLE15=Somebody Somewhere Don't Know What He's Missing Tonight
TTITLE16=She's Got You
TTITLE17=We've Come A Long Way Baby
TTITLE18=I've Got A Picture Of Us On My Mind
TTITLE19=I Lie
EXTD=
EXTT0=
EXTT1=
EXTT2=
EXTT3=
EXTT4=
EXTT5=
EXTT6=
EXTT7=
EXTT8=
EXTT9=
EXTT10=
EXTT11=
EXTT12=
EXTT13=
EXTT14=
EXTT15=
EXTT16=
EXTT17=
EXTT18=
EXTT19=
PLAYORDER=
